<?xml version="1.0" encoding="UTF-8" standalone="no"?>
<svg xmlns="http://www.w3.org/2000/svg" xmlns:xlink="http://www.w3.org/1999/xlink" xmlns:serif="http://www.serif.com/" width="100%" height="100%" viewBox="0 0 269 53" version="1.1" xml:space="preserve" style="fill-rule:evenodd;clip-rule:evenodd;stroke-linejoin:round;stroke-miterlimit:2;">
    <g transform="matrix(1,0,0,1,-4157,0)">
        <g id="Artboard1" transform="matrix(1,0,0,1,-0.880468,2668.15)">
            <rect x="4157.88" y="-2668.15" width="268.772" height="52.828" style="fill:none;"></rect>
            <g transform="matrix(0.193584,0,0,0.380097,4044.48,-2695.12)">
                <g transform="matrix(4.6451,0,0,2.36575,914.711,121.506)">
                    <path d="M0,20.011C0,21.69 0.591,22.518 1.443,23.228C2.2,23.89 3.122,24.269 3.122,25.12C3.122,25.806 2.555,26.232 1.467,26.232C0.355,26.232 -1.656,26.114 -2.957,26.114C-4.447,26.114 -6.197,26.232 -7.143,26.232C-8.35,26.232 -8.823,25.759 -8.823,25.12C-8.823,23.701 -6.599,23.843 -6.268,21.501C-6.103,20.342 -6.032,13.506 -6.032,9.509C-6.032,6.694 -6.055,0.52 -6.126,-0.379C-6.386,-3.595 -8.681,-3.335 -8.681,-4.967C-8.681,-5.606 -8.35,-6.174 -7.12,-6.174C-5.322,-6.174 -4.329,-6.056 -1.94,-6.056C0.615,-6.056 2.72,-6.221 5.866,-6.221C13.151,-6.221 17.291,-3.241 17.291,2.484C17.291,5.369 15.824,8.681 10.076,10.62C9.911,10.691 9.769,10.786 9.769,10.952C9.769,11.07 9.864,11.235 10.1,11.354C13.483,13.293 15.398,16.203 17.385,19.68C18.331,21.336 19.017,22.518 20.177,23.322C21.123,24.056 21.714,24.221 21.714,25.049C21.714,25.948 21.052,26.232 20.366,26.232C19.42,26.232 17.338,26.114 16.25,26.114C14.405,26.114 12.891,26.232 12.276,26.232C11.306,26.232 10.644,25.688 10.644,25.073C10.644,24.269 11.212,24.079 11.212,22.944C11.212,20.011 7.9,14.996 5.535,13.459C4.305,12.749 2.247,12.655 1.94,12.655C0.473,12.655 0,13.364 0,14.571L0,20.011ZM3.714,-2.649C0.284,-2.649 0.024,-2.389 0.024,0.166L0.024,6.741C0.024,8.231 0.568,8.965 3.761,8.965C8.019,8.965 10.55,6.765 10.55,3.146C10.55,-0.591 7.735,-2.649 3.714,-2.649" style="fill-rule:nonzero;"></path>
                </g>
                <g transform="matrix(4.6451,0,0,2.36575,1049.25,151.666)">
                    <path d="M0,2.91C-0.449,2.934 -0.615,3.028 -0.615,3.36C-0.615,5.37 1.23,9.296 6.126,9.296C9.745,9.296 11.898,7.522 13.151,5.488C13.412,5.157 13.743,4.873 14.027,4.873C14.405,4.873 14.642,5.252 14.642,6.103C14.642,8.965 11.235,13.885 4.494,13.885C-2.507,13.885 -7.001,8.942 -7.001,1.988C-7.001,-4.967 -2.176,-10.975 5.086,-10.975C11.07,-10.975 14.263,-6.693 14.263,-2.412C14.263,-0.945 13.553,-0.094 12.513,0.497C9.698,2.201 3.43,2.792 0,2.91M4.542,-7.923C1.206,-7.923 -1.23,-4.565 -1.23,-1.064C-1.23,-0.33 -0.994,0.119 -0.426,0.119C1.372,0.119 6.268,-0.496 8.089,-1.75C8.634,-2.128 8.894,-2.601 8.894,-3.263C8.894,-5.913 7.025,-7.923 4.542,-7.923" style="fill-rule:nonzero;"></path>
                </g>
                <g transform="matrix(4.6451,0,0,2.36575,1195.72,160.398)">
                    <path d="M0,-4.447C0.26,-4.636 0.497,-5.015 0.497,-6.505C0.497,-9.556 -0.781,-12.016 -3.903,-12.016C-6.434,-12.016 -7.616,-10.077 -8.137,-7.9C-8.421,-6.741 -8.894,-5.985 -10.195,-5.985C-11.519,-5.985 -12.986,-6.931 -12.986,-9.012C-12.986,-11.732 -9.627,-14.689 -3.832,-14.689C2.271,-14.689 6.221,-11.307 6.221,-5.18C6.221,-2.105 5.961,1.537 5.961,3.69C5.961,4.731 6.292,5.724 7.333,5.724C7.9,5.724 8.137,5.535 8.492,5.535C8.681,5.535 8.917,5.795 8.917,6.339C8.917,8.373 7.025,10.029 4.66,10.029C2.649,10.029 1.325,9.272 0.615,7.545C0.52,7.332 0.378,7.143 0.213,7.143C0.047,7.143 -0.142,7.427 -0.331,7.616C-1.869,9.106 -4.423,10.242 -7.12,10.242C-11.117,10.242 -14.239,8.137 -14.239,4.352C-14.239,0.638 -11.543,-1.774 -7.356,-3.028C-4.281,-3.903 -0.568,-4.045 0,-4.447M0.071,-1.419C-1.892,-1.419 -3.477,-1.23 -4.825,-0.804C-7.333,0.024 -8.444,1.679 -8.444,3.359C-8.444,5.322 -6.978,6.457 -4.944,6.457C-1.727,6.457 0.52,4.045 0.52,0.426C0.52,-0.994 0.378,-1.419 0.071,-1.419" style="fill-rule:nonzero;"></path>
                </g>
                <g transform="matrix(4.6451,0,0,2.36575,1285.6,160.9)">
                    <path d="M0,-15.729L0,3.809C0,5.441 0.426,6.103 1.135,6.718C1.798,7.333 2.578,7.475 2.578,8.398C2.578,9.083 2.2,9.58 0.923,9.58C-0.118,9.58 -1.561,9.462 -2.72,9.462C-4.139,9.462 -5.251,9.58 -6.765,9.58C-7.9,9.58 -8.232,9.06 -8.232,8.469C-8.232,7.57 -7.404,7.168 -6.954,6.789C-5.795,5.748 -5.606,4.731 -5.606,3.525L-5.606,-18.757C-5.606,-19.845 -6.363,-20.389 -7.191,-20.696C-7.687,-20.957 -8.16,-21.24 -8.16,-21.808C-8.16,-22.801 -6.954,-23.014 -5.417,-23.63C-3.193,-24.505 -2.058,-25.309 -1.135,-25.309C-0.284,-25.309 0.213,-24.859 0.213,-23.866C0.213,-21.879 0,-21.264 0,-15.729" style="fill-rule:nonzero;"></path>
                </g>
                <g transform="matrix(4.6451,0,0,2.36575,1375.91,109.977)">
                    <path d="M0,30.277C-0.615,31.365 -1.561,31.554 -1.892,31.554C-2.413,31.554 -2.744,31.081 -2.98,30.608C-3.028,30.514 -3.501,29.378 -3.737,28.716L-12.394,2.839C-12.773,1.656 -13.435,0.994 -14.24,0.568C-14.523,0.426 -14.949,0.048 -14.949,-0.425C-14.949,-1.04 -14.476,-1.277 -13.483,-1.277C-12.915,-1.277 -12.347,-1.182 -11.306,-1.182C-10.124,-1.182 -8.657,-1.277 -7.995,-1.277C-7.191,-1.277 -6.907,-0.946 -6.907,-0.473C-6.907,0.615 -8.846,0.474 -8.846,1.893C-8.846,2.981 -1.703,25.168 -1.23,26.303C-1.183,26.398 -1.135,26.54 -1.041,26.54C-0.804,26.54 -0.615,25.925 -0.568,25.735C-0.237,24.647 6.197,4.684 6.197,2.886C6.197,0.568 4.447,0.663 4.447,-0.52C4.447,-0.946 4.778,-1.277 5.393,-1.277C5.961,-1.277 7.474,-1.182 8.042,-1.182C9.036,-1.182 9.887,-1.277 10.549,-1.277C11.212,-1.277 11.779,-1.182 11.779,-0.473C11.779,0.521 10.029,0.521 10.029,2.035C10.029,3.407 17.267,25.263 17.74,26.303C17.835,26.492 17.882,26.54 17.882,26.54C18.024,26.54 18.166,26.209 18.355,25.735C19.018,24.127 25.12,3.454 25.12,2.082C25.12,0.237 23.228,0.71 23.228,-0.52C23.228,-0.946 23.559,-1.277 24.268,-1.277C24.742,-1.277 26.303,-1.182 26.87,-1.182C27.391,-1.182 28.668,-1.229 29.189,-1.229C29.803,-1.229 30.135,-0.946 30.135,-0.52C30.135,0.663 28.432,0.615 27.817,2.555L20.106,27.391C19.774,28.527 19.301,29.709 18.97,30.277C18.355,31.365 17.362,31.554 17.031,31.554C16.557,31.554 16.226,31.223 15.942,30.608C15.422,29.473 8.941,10.219 7.995,7.38C7.948,7.191 7.853,7.002 7.758,7.002C7.664,7.002 7.522,7.286 7.38,7.712C6.718,9.698 0.852,28.811 0,30.277" style="fill-rule:nonzero;"></path>
                </g>
                <g transform="matrix(4.6451,0,0,2.36575,1522.9,152.171)">
                    <path d="M0,2.744C-0.426,2.744 -0.568,2.839 -0.568,3.17C-0.568,5.724 1.608,11.212 7.664,11.212C11.827,11.212 14.381,9.036 15.659,6.008C15.848,5.582 16.132,5.204 16.416,5.204C16.652,5.204 16.841,5.488 16.841,6.15C16.841,8.515 13.956,13.625 7.143,13.625C0.757,13.625 -3.785,8.752 -3.785,1.892C-3.785,-4.967 0.804,-10.881 7.616,-10.881C12.536,-10.881 16.463,-7.664 16.463,-2.271C16.463,-1.135 16.037,-0.473 15.28,0.048C12.3,2.082 4.636,2.649 0,2.744M7.427,-9.036C2.886,-9.036 -0.615,-4.589 -0.615,0.142C-0.615,0.568 -0.473,0.852 -0.095,0.852C2.365,0.852 9.603,0.331 12.252,-0.899C13.057,-1.277 13.435,-1.797 13.435,-2.602C13.435,-6.292 10.786,-9.036 7.427,-9.036" style="fill-rule:nonzero;"></path>
                </g>
                <g transform="matrix(4.6451,0,0,2.36575,1686.88,159.332)">
                    <path d="M0,-3.216C0.142,-3.311 0.331,-3.5 0.331,-4.777C0.331,-8.846 -1.325,-12.299 -5.819,-12.299C-9.319,-12.299 -10.644,-9.745 -10.975,-7.805C-11.117,-6.906 -11.401,-6.528 -12.158,-6.528C-12.82,-6.528 -14.098,-7.048 -14.098,-8.657C-14.098,-11.116 -10.881,-13.908 -5.677,-13.908C0.899,-13.908 3.359,-9.413 3.359,-4.351C3.359,-1.134 3.075,4.069 3.075,5.678C3.075,6.908 3.501,7.901 4.494,7.901C5.251,7.901 5.44,7.617 5.819,7.617C5.866,7.617 6.15,7.665 6.15,8.232C6.15,9.226 4.92,10.409 3.359,10.409C1.798,10.409 0.473,9.699 -0.142,7.617C-0.189,7.381 -0.331,7.239 -0.473,7.239C-0.615,7.239 -0.804,7.57 -0.993,7.759C-2.649,9.462 -5.346,10.692 -8.468,10.692C-12.489,10.692 -15.612,8.516 -15.612,4.873C-15.612,1.231 -12.773,-1.324 -8.468,-2.27C-5.109,-2.979 -0.426,-2.979 0,-3.216M-0.189,-1.276C-3.453,-1.276 -5.819,-1.087 -7.711,-0.567C-11.307,0.427 -12.395,2.603 -12.395,4.448C-12.395,7.239 -10.124,8.564 -7.474,8.564C-3.264,8.564 0.284,5.678 0.284,0.427C0.284,-0.709 0.189,-1.276 -0.189,-1.276" style="fill-rule:nonzero;"></path>
                </g>
                <g transform="matrix(4.6451,0,0,2.36575,1752.42,165.937)">
                    <path d="M0,-20.011L0,3.548C0,4.684 0.473,5.251 1.183,5.63C1.845,5.961 2.554,6.103 2.554,6.67C2.554,7.096 2.318,7.427 1.277,7.427C0.615,7.427 -0.426,7.333 -1.419,7.333C-2.46,7.333 -3.122,7.427 -4.21,7.427C-5.251,7.427 -5.488,7.096 -5.488,6.718C-5.488,6.103 -4.778,5.961 -4.305,5.724C-3.17,5.157 -2.933,4.589 -2.933,3.406L-2.933,-22.565C-2.933,-23.417 -3.501,-23.843 -4.589,-24.127C-5.062,-24.269 -5.535,-24.553 -5.535,-24.931C-5.535,-25.641 -4.92,-25.782 -4.021,-26.113C-1.987,-26.918 -1.467,-27.438 -0.804,-27.438C-0.095,-27.438 0.189,-27.06 0.189,-26.208C0.189,-25.404 0,-24.079 0,-20.011" style="fill-rule:nonzero;"></path>
                </g>
                <g transform="matrix(4.6451,0,0,2.36575,1803.67,132.473)">
                    <path d="M0,13.341C0,15.943 0.237,19.585 3.879,19.585C5.866,19.585 7.474,18.214 8.326,17.173C8.799,16.605 9.036,16.274 9.367,16.274C9.509,16.274 9.84,16.369 9.84,16.889C9.84,17.22 9.698,17.788 9.319,18.355C8.468,19.68 6.718,21.951 2.886,21.951C-0.473,21.951 -2.98,19.775 -2.98,13.672C-2.98,11.449 -2.649,2.886 -2.649,1.419C-2.649,0.663 -2.791,0.426 -3.312,0.379C-5.677,0.142 -6.859,0.237 -6.859,-0.662C-6.859,-1.135 -6.528,-1.372 -5.913,-1.561C-4.873,-1.845 -3.69,-2.223 -2.838,-3.359C-1.277,-5.44 -1.372,-8.61 -0.236,-8.61C0.237,-8.61 0.426,-8.089 0.426,-7.38C0.426,-6.623 0.189,-2.034 0.189,-1.892C0.189,-1.797 0.189,-1.75 0.379,-1.75C0.615,-1.75 7.522,-2.034 7.948,-2.034C8.515,-2.034 8.988,-1.845 8.988,-1.135C8.988,-0.473 8.61,0.237 8.373,0.426C8.279,0.521 8.042,0.615 7.853,0.615C7.427,0.615 0.946,0.331 0.52,0.331C0.379,0.331 0.237,0.379 0.237,0.615C0.189,1.23 0,11.023 0,13.341" style="fill-rule:nonzero;"></path>
                </g>
                <g transform="matrix(4.6451,0,0,2.36575,1873.34,171.98)">
                    <path d="M0,-25.12C0,-25.972 -0.568,-26.397 -1.656,-26.681C-2.129,-26.823 -2.602,-27.107 -2.602,-27.485C-2.602,-28.195 -1.987,-28.337 -1.088,-28.668C0.946,-29.472 1.466,-29.993 2.129,-29.993C2.838,-29.993 3.122,-29.614 3.122,-28.763C3.122,-27.959 2.838,-23.654 2.838,-15.375C2.838,-14.665 2.98,-14.476 3.169,-14.476C3.548,-14.476 6.386,-19.254 11.827,-19.254C16.368,-19.254 19.774,-16.226 19.774,-9.225C19.774,-3.926 19.065,0 19.065,1.372C19.065,1.987 19.443,2.649 20.153,3.028C21.004,3.406 21.714,3.501 21.714,4.116C21.714,4.589 21.43,4.873 20.389,4.873C19.68,4.873 19.49,4.778 18.213,4.778C17.125,4.778 16.463,4.873 15.942,4.873C15.233,4.873 15.044,4.542 15.044,4.163C15.044,3.785 15.422,3.122 15.517,2.838C15.942,1.419 16.652,-3.17 16.652,-8.799C16.652,-14.192 14.192,-16.889 10.455,-16.889C6.623,-16.889 2.933,-12.915 2.933,-10.881L2.933,0.994C2.933,2.129 3.406,2.697 4.116,3.075C4.778,3.406 5.487,3.548 5.487,4.116C5.487,4.542 5.251,4.873 4.21,4.873C3.169,4.873 2.791,4.778 1.514,4.778C0.378,4.778 0.615,4.873 -1.277,4.873C-2.318,4.873 -2.555,4.542 -2.555,4.163C-2.555,3.548 -1.845,3.406 -1.372,3.17C-0.237,2.602 0,2.034 0,0.852L0,-25.12Z" style="fill-rule:nonzero;"></path>
                </g>
                <g transform="matrix(4.6451,0,0,2.36575,585.8,70.9567)">
                    <path d="M0,58.749L0,38.534C0,37.994 0.024,16.798 0.071,16.27C0.883,7.15 8.544,0 17.875,0L17.875,40.874C17.875,50.747 9.872,58.749 0,58.749" style="fill-rule:nonzero;"></path>
                </g>
                <g transform="matrix(4.6451,0,0,2.36575,724.094,113.244)">
                    <path d="M0,-17.875L-9.087,-17.875C-9.087,-8.003 -1.085,0 8.787,0L17.875,0C17.875,-9.872 9.872,-17.875 0,-17.875" style="fill-rule:nonzero;"></path>
                </g>
                <g transform="matrix(4.6451,0,0,2.36575,764.914,161.577)">
                    <path d="M0,-17.875L9.087,-17.875C9.087,-8.003 1.084,0 -8.788,0L-17.875,0C-17.875,-9.872 -9.872,-17.875 0,-17.875" style="fill-rule:nonzero;"></path>
                </g>
                <g transform="matrix(4.6451,0,0,2.36575,724.094,209.91)">
                    <path d="M0,-17.875L-9.087,-17.875C-9.087,-8.003 -1.085,0 8.787,0L17.875,0C17.875,-9.872 9.872,-17.875 0,-17.875" style="fill-rule:nonzero;"></path>
                </g>
            </g>
        </g>
    </g>
</svg>