<?xml version="1.0" encoding="UTF-8"?>
<svg xmlns="http://www.w3.org/2000/svg" width="301" height="59" fill="none">
  <path fill="currentColor" d="M71.308 41.555c0 1.686.595 2.518 1.451 3.23.762.665 1.691 1.045 1.691 1.9 0 .69-.572 1.116-1.667 1.116-1.095 0-3.145-.118-4.455-.118-1.501 0-3.263.118-4.216.118-1.215 0-1.69-.476-1.69-1.115 0-1.424 2.239-1.283 2.572-3.634.168-1.165.239-8.03.239-12.043 0-2.827-.024-9.027-.095-9.93-.262-3.23-2.572-2.969-2.572-4.608 0-.641.333-1.212 1.572-1.212 1.811 0 2.812.118 5.216.118 2.573 0 4.692-.167 7.86-.167 7.338 0 11.504 2.992 11.504 8.741 0 2.898-1.478 6.223-7.264 8.171-.168.071-.31.168-.31.333 0 .118.095.285.334.403 3.407 1.948 5.334 4.87 7.337 8.362.953 1.662 1.644 2.85 2.812 3.657.953.736 1.549.903 1.549 1.733 0 .904-.667 1.189-1.358 1.189-.953 0-3.048-.118-4.145-.118-1.859 0-3.381.118-4 .118-.977 0-1.644-.547-1.644-1.165 0-.806.572-.997.572-2.139 0-2.945-3.334-7.982-5.718-9.526-1.239-.713-3.31-.807-3.62-.807-1.478 0-1.953.712-1.953 1.924v5.464l-.002.005Zm3.738-22.756c-3.455 0-3.715.262-3.715 2.827v6.603c0 1.497.549 2.233 3.765 2.233 4.287 0 6.836-2.21 6.836-5.843 0-3.634-2.835-5.82-6.884-5.82h-.002Zm25.429 18.384c-.451.023-.62.118-.62.45 0 2.019 1.859 5.961 6.79 5.961 3.643 0 5.812-1.782 7.074-3.824.263-.333.596-.618.882-.618.381 0 .62.38.62 1.235 0 2.875-3.431 7.815-10.22 7.815-6.789 0-11.577-4.964-11.577-11.948 0-6.985 4.86-13.017 12.173-13.017 6.027 0 9.243 4.299 9.243 8.6 0 1.474-.714 2.327-1.761 2.922-2.836 1.71-9.147 2.303-12.601 2.421l-.003.003Zm4.573-10.878c-3.357 0-5.812 3.372-5.812 6.888 0 .736.239 1.188.811 1.188 1.812 0 6.742-.617 8.574-1.877.549-.38.811-.856.811-1.52 0-2.66-1.882-4.682-4.384-4.682v.003Zm27.179 7.197c.263-.191.502-.57.502-2.066 0-3.063-1.287-5.535-4.432-5.535-2.549 0-3.74 1.948-4.263 4.134-.286 1.165-.761 1.924-2.071 1.924s-2.812-.95-2.812-3.04c0-2.73 3.381-5.701 9.217-5.701 6.146 0 10.123 3.396 10.123 9.55 0 3.09-.262 6.747-.262 8.91 0 1.044.333 2.041 1.381 2.041.572 0 .811-.19 1.168-.19.191 0 .428.261.428.808 0 2.042-1.906 3.705-4.287 3.705-2.024 0-3.358-.76-4.074-2.495-.095-.215-.239-.403-.405-.403-.165 0-.357.285-.548.474-1.549 1.497-4.122 2.636-6.837 2.636-4.024 0-7.169-2.115-7.169-5.914 0-3.799 2.715-6.152 6.931-7.412 3.097-.88 6.836-1.02 7.408-1.424l.002-.002Zm.071 3.042c-1.977 0-3.573.19-4.93.617-2.525.833-3.644 2.495-3.644 4.181 0 1.972 1.478 3.113 3.526 3.113 3.239 0 5.502-2.422 5.502-6.058 0-1.424-.142-1.853-.451-1.853h-.003Zm19.416-14.158v19.621c0 1.64.428 2.304 1.145 2.922.667.618 1.452.76 1.452 1.686 0 .689-.381 1.189-1.667 1.189-1.048 0-2.502-.118-3.668-.118-1.428 0-2.549.118-4.074.118-1.145 0-1.478-.524-1.478-1.116 0-.903.835-1.306 1.286-1.686 1.168-1.044 1.358-2.066 1.358-3.278V19.348c0-1.091-.762-1.639-1.597-1.947-.501-.262-.976-.548-.976-1.116 0-.997 1.215-1.212 2.762-1.83 2.239-.88 3.381-1.686 4.31-1.686.859 0 1.358.45 1.358 1.448 0 1.995-.215 2.613-.215 8.17l.004-.001Zm19.577 24.585c-.62 1.092-1.573 1.283-1.906 1.283-.525 0-.858-.474-1.095-.95a36.31 36.31 0 0 1-.761-1.9l-8.719-25.987c-.38-1.189-1.047-1.854-1.858-2.28-.286-.144-.714-.524-.714-.998 0-.618.475-.856 1.478-.856.572 0 1.144.094 2.192.094 1.191 0 2.667-.094 3.334-.094.811 0 1.095.332 1.095.806 0 1.092-1.954.95-1.954 2.375 0 1.092 7.194 23.374 7.671 24.515.048.094.095.238.192.238.239 0 .428-.618.475-.809.333-1.092 6.813-21.14 6.813-22.947 0-2.327-1.762-2.233-1.762-3.421 0-.427.333-.76.953-.76.572 0 2.095.095 2.667.095 1 0 1.859-.094 2.526-.094.666 0 1.239.094 1.239.806 0 .997-1.762.997-1.762 2.518 0 1.378 7.288 23.327 7.765 24.374.095.191.142.238.142.238.142 0 .286-.332.476-.809.666-1.615 6.812-22.376 6.812-23.753 0-1.853-1.906-1.377-1.906-2.613 0-.427.334-.76 1.048-.76.477 0 2.047.095 2.62.095.525 0 1.811-.047 2.334-.047.619 0 .953.285.953.712 0 1.189-1.715 1.14-2.334 3.09l-7.766 24.941c-.333 1.14-.811 2.328-1.144 2.898-.62 1.092-1.62 1.283-1.953 1.283-.476 0-.812-.332-1.095-.95-.525-1.14-7.052-20.476-8.005-23.327-.047-.19-.141-.38-.238-.38s-.239.286-.381.713c-.667 1.995-6.574 21.19-7.432 22.661Zm31.868-9.739c-.428 0-.572.095-.572.427 0 2.566 2.192 8.077 8.29 8.077 4.193 0 6.765-2.186 8.052-5.226.191-.427.475-.809.761-.809.239 0 .428.285.428.95 0 2.375-2.906 7.506-9.766 7.506-6.432 0-11.005-4.893-11.005-11.78 0-6.889 4.621-12.829 11.48-12.829 4.954 0 8.91 3.23 8.91 8.647 0 1.142-.428 1.807-1.191 2.328-3.001 2.042-10.719 2.613-15.387 2.707v.002Zm7.479-11.83c-4.573 0-8.099 4.466-8.099 9.218 0 .426.142.712.525.712 2.479 0 9.766-.524 12.434-1.757.811-.38 1.191-.903 1.191-1.71 0-3.707-2.667-6.461-6.051-6.461v-.002Zm28.073 8.885c.142-.094.333-.285.333-1.568 0-4.087-1.667-7.553-6.192-7.553-3.526 0-4.86 2.565-5.193 4.513-.142.903-.428 1.283-1.192 1.283-.667 0-1.953-.523-1.953-2.139 0-2.471 3.239-5.273 8.479-5.273 6.621 0 9.099 4.514 9.099 9.598 0 3.23-.286 8.456-.286 10.071 0 1.236.428 2.234 1.429 2.234.761 0 .953-.286 1.333-.286.048 0 .334.047.334.618 0 .998-1.239 2.186-2.812 2.186-1.572 0-2.906-.712-3.526-2.804-.047-.238-.191-.38-.333-.38-.142 0-.333.333-.525.524-1.667 1.71-4.384 2.945-7.526 2.945-4.049 0-7.194-2.185-7.194-5.843 0-3.657 2.859-6.223 7.194-7.173 3.381-.712 8.098-.712 8.526-.95l.005-.003Zm-.191 1.948c-3.287 0-5.668.19-7.574.712-3.621.997-4.718 3.183-4.718 5.037 0 2.804 2.287 4.134 4.954 4.134 4.24 0 7.813-2.899 7.813-8.171 0-1.14-.095-1.71-.475-1.71v-.002Zm14.4-16.012v23.66c0 1.14.475 1.709 1.192 2.088.667.333 1.381.477 1.381 1.045 0 .427-.239.76-1.287.76-.666 0-1.714-.095-2.714-.095s-1.714.094-2.812.094c-1.097 0-1.286-.332-1.286-.712 0-.618.714-.76 1.192-.997 1.142-.57 1.381-1.14 1.381-2.328V17.655c0-.856-.573-1.283-1.667-1.568-.476-.141-.953-.427-.953-.806 0-.713.619-.856 1.525-1.189 2.048-.809 2.573-1.33 3.239-1.33.715 0 1.001.38 1.001 1.236 0 .806-.192 2.139-.192 6.223v.002Zm11.109 19.29c0 2.612.239 6.27 3.906 6.27 2.001 0 3.621-1.377 4.479-2.422.475-.57.714-.903 1.048-.903.141 0 .475.094.475.618 0 .332-.142.903-.525 1.474-.858 1.33-2.62 3.61-6.479 3.61-3.382 0-5.907-2.186-5.907-8.315 0-2.233.333-10.833.333-12.305 0-.759-.144-.997-.666-1.044-2.382-.238-3.573-.142-3.573-1.045 0-.474.333-.712.953-.903 1.047-.285 2.239-.665 3.097-1.806 1.573-2.09 1.478-5.273 2.62-5.273.476 0 .667.523.667 1.236 0 .759-.239 5.369-.239 5.51 0 .095 0 .142.192.142.239 0 7.193-.285 7.623-.285.573 0 1.048.19 1.048.903 0 .665-.381 1.377-.62 1.568-.094.094-.333.19-.525.19-.428 0-6.954-.284-7.384-.284-.142 0-.286.047-.286.285-.048.618-.239 10.451-.239 12.78l.002-.001Zm15.103-21.855c0-.856-.572-1.283-1.667-1.569-.475-.141-.953-.426-.953-.806 0-.712.619-.856 1.525-1.189 2.048-.808 2.573-1.33 3.24-1.33.714 0 1 .38 1 1.236 0 .807-.286 5.131-.286 13.446 0 .712.142.903.333.903.381 0 3.24-4.799 8.719-4.799 4.573 0 8.004 3.04 8.004 10.072 0 5.322-.714 9.265-.714 10.642 0 .618.38 1.283 1.095 1.663.858.38 1.572.474 1.572 1.091 0 .474-.286.76-1.334.76-.714 0-.905-.095-2.192-.095-1.094 0-1.761.095-2.286.095-.714 0-.906-.333-.906-.712 0-.38.381-1.045.475-1.33.428-1.425 1.145-6.035 1.145-11.687 0-5.653-2.478-8.124-6.24-8.124s-7.574 3.99-7.574 6.034v11.926c0 1.14.475 1.71 1.192 2.089.666.332 1.38.476 1.38 1.044 0 .427-.238.76-1.286.76-1.047 0-1.428-.095-2.714-.095-1.145 0-.906.095-2.812.095-1.048 0-1.286-.333-1.286-.712 0-.618.714-.76 1.191-.998 1.142-.57 1.381-1.139 1.381-2.327V17.658h-.002ZM18 41.05V0C8.605 0 .89 7.18.07 16.34.025 16.87 0 38.156 0 38.698V59c9.94 0 18-8.036 18-17.95ZM29.98 0H20.83c0 9.914 8.059 17.95 18 17.95h9.15C47.98 8.036 39.923 0 29.982 0ZM20.83 38.468h9.151c9.94 0 18-8.037 18-17.95H38.83c-9.941 0-18 8.036-18 17.95Zm9.151 2.565H20.83c0 9.914 8.059 17.95 18 17.95h9.15c0-9.913-8.058-17.95-17.999-17.95Z"></path>
</svg>
